<?xml version="1.0" encoding="utf-8"?>
<!-- Generator: Adobe Illustrator 25.4.1, SVG Export Plug-In . SVG Version: 6.00 Build 0)  -->
<svg version="1.1" id="Layer_1" xmlns="http://www.w3.org/2000/svg" xmlns:xlink="http://www.w3.org/1999/xlink" x="0px" y="0px"
	 viewBox="0 0 362.4 93.3" style="enable-background:new 0 0 362.4 93.3;" xml:space="preserve">
<style type="text/css">
	.st0{fill:#2A2E79;}
</style>
<g id="Background_xA0_Image_1_">
</g>
<path class="st0" d="M46.1,30c0,8.9-2.4,15.8-7.3,20.7C33.9,55.5,27.1,58,18.3,58H1.1V4.4h18.3c8.5,0,15.1,2.2,19.7,6.6
	C43.7,15.4,46.1,21.7,46.1,30z M31.2,30.5c0-4.9-1-8.6-2.9-10.9c-1.9-2.4-4.8-3.6-8.8-3.6h-4.1v30h3.2c4.4,0,7.5-1.3,9.6-3.8
	C30.2,39.7,31.2,35.8,31.2,30.5z"/>
<path class="st0" d="M75.8,58l-2.7-5.5h-0.3c-1.9,2.4-3.9,4-5.8,4.9c-2,0.9-4.5,1.3-7.7,1.3c-3.9,0-6.9-1.2-9.1-3.5
	c-2.2-2.3-3.3-5.6-3.3-9.9c0-4.4,1.5-7.7,4.6-9.9c3-2.2,7.5-3.4,13.2-3.6l6.9-0.2V31c0-3.4-1.7-5.1-5-5.1c-3,0-6.8,1-11.4,3.1
	l-4.1-9.5c4.8-2.5,10.8-3.7,18.1-3.7c5.3,0,9.3,1.3,12.2,4c2.9,2.6,4.3,6.3,4.3,11.1v27.2h-9.9V58z M65.3,48.6
	c1.7,0,3.2-0.5,4.4-1.6s1.8-2.5,1.8-4.3v-3.2l-3.3,0.1c-4.7,0.2-7,1.9-7,5.2C61.3,47.3,62.6,48.6,65.3,48.6z"/>
<path class="st0" d="M110.7,47.4c1.9,0,4.2-0.5,6.9-1.4v10.4c-1.9,0.8-3.7,1.4-5.5,1.8c-1.7,0.4-3.8,0.5-6.1,0.5
	c-4.8,0-8.2-1.2-10.3-3.5c-2.1-2.4-3.2-6-3.2-10.9V27.2h-5v-5.9l7.3-2.7l2.7-10.5h9.3v8.3h10.1v10.7h-10.1v16.2
	C106.9,46,108.1,47.4,110.7,47.4z"/>
<path class="st0" d="M149.8,58l-2.7-5.5h-0.3c-1.9,2.4-3.9,4-5.8,4.9c-2,0.9-4.5,1.3-7.7,1.3c-3.9,0-6.9-1.2-9.1-3.5
	c-2.2-2.3-3.3-5.6-3.3-9.9c0-4.4,1.5-7.7,4.6-9.9c3-2.2,7.5-3.4,13.2-3.6l6.9-0.2V31c0-3.4-1.7-5.1-5-5.1c-3,0-6.8,1-11.4,3.1
	l-4.1-9.5c4.8-2.5,10.8-3.7,18.1-3.7c5.3,0,9.3,1.3,12.2,4c2.9,2.6,4.3,6.3,4.3,11.1v27.2h-9.9V58z M139.3,48.6
	c1.7,0,3.2-0.5,4.4-1.6s1.8-2.5,1.8-4.3v-3.2l-3.3,0.1c-4.7,0.2-7,1.9-7,5.2C135.3,47.3,136.6,48.6,139.3,48.6z"/>
<path class="st0" d="M181.5,58h-14.1V4.4h31.3V16h-17.2v10.2h15.9v11.6h-15.9V58z"/>
<path class="st0" d="M217.1,58h-14.2V4.4h14.2V58z"/>
<path class="st0" d="M262.4,37.1c0,6.8-1.8,12.1-5.4,15.9c-3.6,3.8-8.7,5.7-15.2,5.7c-6.2,0-11.2-1.9-14.9-5.8
	c-3.7-3.9-5.5-9.1-5.5-15.8c0-6.8,1.8-12,5.4-15.8s8.7-5.6,15.2-5.6c4,0,7.6,0.9,10.7,2.6c3.1,1.7,5.5,4.2,7.2,7.5
	C261.6,29,262.4,32.8,262.4,37.1z M235.8,37.1c0,3.6,0.5,6.3,1.4,8.2s2.5,2.8,4.8,2.8c2.2,0,3.8-0.9,4.7-2.8
	c0.9-1.9,1.4-4.6,1.4-8.2c0-3.5-0.5-6.2-1.4-8s-2.5-2.7-4.7-2.7s-3.7,0.9-4.7,2.7C236.3,30.9,235.8,33.5,235.8,37.1z"/>
<path class="st0" d="M302.1,58l-4.6-19.8l-1.1-6l-0.7-4.8h-0.2c-1.2,6.8-2,11.2-2.4,12.9l-4.2,17.6H274l-11.2-41.5h14l3.3,15.9
	c1.1,5.5,1.7,10,1.8,13.6h0.2c0.1-2.2,0.7-6.5,2-12.8l3.8-16.8h15.7l3.5,17c1.1,5.4,1.8,9.6,2.1,12.6h0.2c0.1-1.9,0.4-4.2,0.7-6.9
	c0.3-2.8,0.7-5,1.1-6.7l3.6-15.9h13.7l-11.3,41.5L302.1,58L302.1,58z"/>
<path class="st0" d="M362.4,45.2c0,4.4-1.5,7.8-4.5,10.1s-7.3,3.4-12.9,3.4c-3,0-5.7-0.2-7.9-0.5s-4.5-0.9-6.9-1.8V44.9
	c2.2,1,4.6,1.8,7.2,2.4c2.6,0.6,5,1,7,1c3.1,0,4.6-0.7,4.6-2.1c0-0.7-0.4-1.4-1.3-2s-3.4-1.7-7.5-3.4c-3.8-1.6-6.4-3.3-7.9-5.3
	s-2.2-4.5-2.2-7.6c0-3.9,1.5-6.9,4.4-9c2.9-2.2,7.1-3.2,12.5-3.2c2.7,0,5.3,0.3,7.6,0.9c2.4,0.6,4.9,1.5,7.4,2.6l-3.8,9.2
	c-1.9-0.9-3.9-1.6-6-2.2c-2.1-0.6-3.8-0.9-5.1-0.9c-2.3,0-3.5,0.6-3.5,1.7c0,0.7,0.4,1.3,1.2,1.8c0.8,0.5,3.1,1.5,7,3.1
	c2.9,1.2,5,2.4,6.4,3.5s2.5,2.5,3.1,4C362.1,41.1,362.4,43,362.4,45.2z"/>
<path class="st0" d="M20.5,89.4h-4.2l-2.4-9.1c-0.1-0.3-0.2-1-0.4-2c-0.2-1-0.3-1.7-0.4-2.1c0,0.4-0.2,1.1-0.4,2.1
	c-0.2,0.9-0.3,1.6-0.4,2L10,89.4H5.8L1.4,72H5l2.2,9.5c0.4,1.8,0.7,3.3,0.8,4.6c0-0.5,0.2-1.2,0.3-2.1c0.2-0.9,0.3-1.7,0.5-2.2
	l2.5-9.7h3.5l2.5,9.7c0.1,0.4,0.2,1.1,0.4,2c0.2,0.9,0.3,1.7,0.4,2.3c0.1-0.6,0.2-1.4,0.4-2.3c0.2-0.9,0.3-1.7,0.5-2.2l2.2-9.5h3.6
	L20.5,89.4z"/>
<path class="st0" d="M63.8,80.7c0,2.9-0.7,5.1-2.1,6.6c-1.4,1.5-3.5,2.3-6.1,2.3c-2.7,0-4.7-0.8-6.1-2.3s-2.1-3.8-2.1-6.7
	s0.7-5.1,2.1-6.6s3.5-2.3,6.2-2.3c2.7,0,4.7,0.8,6.1,2.3C63.1,75.6,63.8,77.8,63.8,80.7z M51.1,80.7c0,1.9,0.4,3.4,1.1,4.4
	s1.8,1.5,3.3,1.5c2.9,0,4.4-2,4.4-5.9s-1.5-5.9-4.4-5.9c-1.5,0-2.6,0.5-3.3,1.5S51.1,78.8,51.1,80.7z"/>
<path class="st0" d="M93,82.8v6.7h-3.7V72.1h5.1c2.4,0,4.1,0.4,5.2,1.3c1.1,0.9,1.7,2.2,1.7,3.9c0,1-0.3,1.9-0.8,2.7
	c-0.6,0.8-1.4,1.4-2.4,1.9c2.6,3.9,4.3,6.4,5.1,7.6h-4.1L95,82.8L93,82.8L93,82.8z M93,79.8h1.2c1.2,0,2-0.2,2.6-0.6
	c0.6-0.4,0.8-1,0.8-1.8s-0.3-1.4-0.8-1.8c-0.6-0.3-1.4-0.5-2.6-0.5h-1.1L93,79.8L93,79.8z"/>
<path class="st0" d="M141.2,89.4H137l-4.6-7.3l-1.6,1.1v6.2h-3.7V72h3.7v8l1.5-2l4.7-5.9h4.1l-6.1,7.7L141.2,89.4z"/>
<path class="st0" d="M203.8,84.6c0,1.6-0.6,2.8-1.7,3.7c-1.1,0.9-2.7,1.4-4.7,1.4c-1.9,0-3.5-0.3-4.9-1v-3.4c1.2,0.5,2.2,0.9,3,1.1
	s1.6,0.3,2.2,0.3c0.8,0,1.4-0.2,1.9-0.5c0.4-0.3,0.6-0.8,0.6-1.4c0-0.3-0.1-0.6-0.3-0.9c-0.2-0.3-0.5-0.5-0.8-0.8
	c-0.4-0.2-1.1-0.6-2.3-1.2c-1.1-0.5-1.9-1-2.4-1.4c-0.5-0.5-1-1-1.3-1.6s-0.5-1.3-0.5-2.1c0-1.5,0.5-2.7,1.6-3.6
	c1-0.9,2.5-1.3,4.3-1.3c0.9,0,1.8,0.1,2.6,0.3s1.7,0.5,2.6,0.9l-1.2,2.9c-0.9-0.4-1.7-0.6-2.3-0.8c-0.6-0.2-1.2-0.2-1.8-0.2
	c-0.7,0-1.2,0.2-1.6,0.5s-0.6,0.7-0.6,1.3c0,0.3,0.1,0.6,0.2,0.8c0.2,0.2,0.4,0.5,0.7,0.7c0.3,0.2,1.1,0.6,2.3,1.2
	c1.6,0.8,2.7,1.6,3.3,2.3C203.5,82.5,203.8,83.5,203.8,84.6z"/>
<path class="st0" d="M236.2,89.4L232,75.8h-0.1c0.2,2.8,0.2,4.6,0.2,5.6v8.1h-3.3V72.1h5l4.1,13.3h0.1l4.4-13.3h5v17.4H244v-8.2
	c0-0.4,0-0.8,0-1.3s0.1-1.9,0.2-4h-0.1l-4.5,13.6h-3.4V89.4z"/>
<path class="st0" d="M284.4,89.4l-1.3-4.1h-6.3l-1.3,4.1h-4l6.1-17.5h4.5l6.2,17.5H284.4z M282.2,82.2c-1.2-3.7-1.8-5.9-2-6.4
	c-0.1-0.5-0.3-0.9-0.3-1.2c-0.3,1-1,3.5-2.2,7.5L282.2,82.2L282.2,82.2z"/>
<path class="st0" d="M316.1,82.8v6.7h-3.7V72.1h5.1c2.4,0,4.1,0.4,5.2,1.3c1.1,0.9,1.7,2.2,1.7,3.9c0,1-0.3,1.9-0.8,2.7
	c-0.6,0.8-1.4,1.4-2.4,1.9c2.6,3.9,4.3,6.4,5.1,7.6h-4.1l-4.1-6.7L316.1,82.8L316.1,82.8z M316.1,79.8h1.2c1.2,0,2-0.2,2.6-0.6
	c0.6-0.4,0.8-1,0.8-1.8s-0.3-1.4-0.8-1.8c-0.6-0.3-1.4-0.5-2.6-0.5h-1.1v4.7H316.1z"/>
<path class="st0" d="M357.1,89.4h-3.7V75.1h-4.7V72h13.1v3.1h-4.7L357.1,89.4L357.1,89.4z"/>
</svg>
